<?xml version="1.0" encoding="utf-8"?>
<!-- Generator: Adobe Illustrator 27.0.0, SVG Export Plug-In . SVG Version: 6.00 Build 0)  -->
<svg version="1.1" id="a" xmlns="http://www.w3.org/2000/svg" xmlns:xlink="http://www.w3.org/1999/xlink" x="0px" y="0px"
	 viewBox="0 0 500 500" style="enable-background:new 0 0 500 500;" xml:space="preserve">
<style type="text/css">
	.st0{fill:#FF4558;}
	.st1{fill:none;}
	.st2{fill:#162B34;}
</style>
<circle class="st0" cx="236.7" cy="399.8" r="33.3"/>
<line class="st1" x1="229.5" y1="78.3" x2="330.8" y2="366.8"/>
<path class="st2" d="M330.8,366.8L330.8,366.8L218.4,46.7c-11.3-32.2-45.1-50.1-77.7-42.6c-3.8,0.9-6,5-4.7,8.7l41.5,118.3l59,168.2
	c0,0-0.1,0-0.1,0c-55.1,0-99.8,44.7-99.8,99.8s44.7,99.8,99.8,99.8s99.8-44.7,99.8-99.8C336.2,387.9,334.3,377,330.8,366.8
	L330.8,366.8z M236.4,452.4c-29.4,0-53.2-23.8-53.2-53.2s23.8-53.2,53.2-53.2s53.2,23.8,53.2,53.2S265.8,452.4,236.4,452.4
	L236.4,452.4z"/>
<path class="st2" d="M177.7,192l-45.4-12.9L11.7,144.7c-3.8-1.1-7.7,1.4-8.4,5.2c-5.6,33,14.4,65.6,47.1,75l154.2,44L177.7,192z"/>
<line class="st1" x1="491.4" y1="283.6" x2="414.3" y2="212"/>
<path class="st2" d="M457.7,252.2c-9.6,13.6-25.5,22.5-43.4,22.5c-29.4,0-53.2-23.8-53.2-53.2c0-29.4,23.8-53.2,53.2-53.2
	c18,0,34,9,43.6,22.7l34.1-33.3c-18.4-22.5-46.3-36.9-77.7-36.9c-55.4,0-100.3,44.9-100.3,100.3c0,55.4,44.9,100.3,100.3,100.3
	c31.4,0,59.4-14.4,77.8-37.1L457.7,252.2z"/>
</svg>
