<?xml version="1.0" encoding="UTF-8"?>
<svg id="a" data-name="Layer 1" xmlns="http://www.w3.org/2000/svg" viewBox="0 0 1005.42 454">
  <defs>
    <style>
      .b {
        fill: #ff4558;
      }

      .c {
        fill: #162b34;
      }
    </style>
  </defs>
  <path class="c" d="M964.98,228.25c-9.45,13.16-25.3,21.42-43,20.2-24-1.65-43.45-21.1-45.11-45.1-1.96-28.45,20.53-52.13,48.56-52.13,17.14,0,32.2,8.86,40.87,22.25,1.57,2.42,4.65,3.35,7.32,2.28l27.97-11.19c3.44-1.38,4.86-5.49,3.02-8.7-16.57-28.84-48.45-47.78-84.55-45.71-44.47,2.55-83.75,42.3-85.8,86.8-2.41,52.37,39.33,95.58,91.17,95.58,33.88,0,63.44-18.46,79.19-45.87,1.84-3.21,.42-7.32-3.02-8.69l-29.45-11.78c-2.58-1.03-5.54-.2-7.16,2.06Z"/>
  <path class="c" d="M769.13,271.46c-50.41,0-91.27,40.86-91.27,91.27s40.86,91.27,91.27,91.27,91.27-40.86,91.27-91.27-40.86-91.27-91.27-91.27Zm0,139.95c-26.88,0-48.68-21.79-48.68-48.68s21.79-48.68,48.68-48.68,48.68,21.79,48.68,48.68-21.79,48.68-48.68,48.68Z"/>
  <line class="c" x1="762.87" y1="69.41" x2="855.49" y2="333.13"/>
  <path class="c" d="M752.73,40.5c-10.37-29.4-41.22-45.82-71.03-38.94-3.51,.81-5.52,4.54-4.32,7.94l37.95,108.18,69.04,196.87,71.12,18.59L752.73,40.5Z"/>
  <path class="c" d="M708.86,172.79c-.33-.93-1.09-1.65-2.04-1.92l-32.84-9.36-110.25-31.44c-3.47-.99-7.07,1.23-7.67,4.79-5.09,30.17,13.13,59.99,43.1,68.59l128.2,36.6c2.37,.68,4.52-1.6,3.71-3.93l-22.21-63.32Z"/>
  <circle class="b" cx="140.84" cy="306" r="20"/>
  <line class="c" x1="136.51" y1="112.78" x2="197.4" y2="286.15"/>
  <path class="c" d="M197.38,286.15h.02S129.85,93.77,129.85,93.77c-6.82-19.33-27.1-30.12-46.7-25.6-2.31,.53-3.63,2.98-2.84,5.22l24.95,71.12,35.46,101.1s-.06,0-.08,0c-33.14,0-60,26.86-60,60s26.86,60,60,60,60-26.86,60-60c0-6.82-1.15-13.36-3.25-19.46Zm-56.75,51.46c-17.67,0-32-14.33-32-32s14.33-32,32-32,32,14.33,32,32-14.33,32-32,32Z"/>
  <path class="c" d="M270.58,216.22c-6.21,8.65-16.63,14.08-28.27,13.28-15.78-1.09-28.57-13.87-29.66-29.65-1.29-18.7,13.5-34.27,31.92-34.27,11.27,0,21.17,5.83,26.87,14.63,1.03,1.59,3.05,2.2,4.81,1.5l18.39-7.36c2.26-.91,3.2-3.61,1.98-5.72-10.9-18.96-31.85-31.41-55.58-30.05-29.24,1.67-55.06,27.81-56.4,57.06-1.59,34.43,25.86,62.84,59.93,62.84,22.27,0,41.71-12.14,52.06-30.16,1.21-2.11,.27-4.81-1.99-5.71l-19.36-7.74c-1.7-.68-3.64-.13-4.71,1.35Z"/>
  <path class="c" d="M105.37,181.11l-27.3-7.78L5.6,152.66c-2.28-.65-4.65,.81-5.04,3.15-3.35,19.83,8.63,39.44,28.33,45.09l92.7,26.47-16.22-46.25Z"/>
</svg>