<?xml version="1.0" encoding="UTF-8"?>
<svg id="a" data-name="Layer 1" xmlns="http://www.w3.org/2000/svg" viewBox="0 0 131.1 246.62">
  <defs>
    <style>
      .b {
        fill: #09090e;
      }

      .c {
        fill: #565656;
      }
    </style>
  </defs>
  <path class="b" d="M15.61,244.28c3.35,1.5,7.05,2.34,10.96,2.34,5.04,0,9.75-1.4,13.79-3.82,.58-.37,1.16-.76,1.72-1.16,1.67-1.2,3.15-2.5,4.46-3.91,.1-.11,.2-.21,.29-.31,.04-.05,.09-.1,.13-.15,1.61-1.87,2.97-3.96,4.02-6.22h.02c1.37-3.03,2.14-6.39,2.27-10.08,.2-5.73-1.66-10.89-4.95-15.4-4.89-6.7-4.93-13.87-3-21.41,1.69-6.58,4.63-12.58,8.17-18.3l-7.1-5.46c-2.62,6.68-5.23,13.37-7.68,20.11-2.44,6.71-6.87,10.8-13.82,12.29-3.59,.77-7.04,1.95-10.35,3.55-10.07,4.89-16.12,16.79-14.18,27.82,1.66,9.46,7.31,15.8,15.25,20.1Zm11.47-43c9.55-.09,18.38,10.11,17.58,18.74-.15,10.38-8.27,18.28-18.6,18.1-9.64-.17-17.74-8.46-17.63-18.05,.13-10.63,8.35-18.7,18.65-18.79Z"/>
  <path class="b" d="M116.55,196.36c-3.31-1.61-6.77-2.78-10.35-3.55-6.94-1.49-11.38-5.58-13.82-12.29-2.45-6.74-5.05-13.43-7.68-20.11l-3.49-8.89c-.04-.1-.08-.21-.12-.31-.43-1.1-.83-2.14-.84-3.34-.02-4.08,0-8.14,.25-12.19l-15.73-41.28c-5.83-14.67-11.76-29.3-17.41-44.04-.55-1.44-1.12-2.88-1.68-4.32l-4.61-11.67-6.66-16.18s-.03-.07-.05-.11l-4.53-10.57c-.18-.42-.37-.85-.55-1.27-.15,.13-5.87,4.94-2.52,19.32l3.4,14.57h0c2.51,10.78,5.01,21.56,7.55,32.33,4.03,17.15,7.94,34.32,11.45,51.58,1.61,7.91,1.72,15.84,1.69,23.82,0,1.21-.41,2.25-.84,3.34-.04,.1-.08,.21-.12,.31l9.17,7.05,6.5-11.99,12.06,19.29c3.54,5.71,6.48,11.72,8.17,18.3,1.94,7.54,1.89,14.72-3,21.41-3.29,4.5-5.15,9.67-4.95,15.4,.13,3.7,.9,7.05,2.27,10.08h.02c1.05,2.26,2.41,4.35,4.02,6.22,.04,.05,.09,.1,.13,.15,.09,.11,.2,.21,.29,.31,1.31,1.4,2.79,2.71,4.46,3.91,.56,.4,1.13,.79,1.72,1.16,4.03,2.41,8.74,3.82,13.79,3.82,3.91,0,7.61-.84,10.96-2.34,7.93-4.3,13.58-10.64,15.25-20.1,1.94-11.02-4.11-22.92-14.18-27.82Zm-51.05-62.31c-2.95,0-5.34-2.39-5.34-5.34s2.39-5.34,5.34-5.34,5.34,2.39,5.34,5.34-2.39,5.34-5.34,5.34Zm39.53,104.06c-10.33,.18-18.45-7.73-18.6-18.1-.8-8.63,8.03-18.83,17.58-18.74,10.3,.1,18.52,8.16,18.65,18.79,.11,9.59-7.99,17.88-17.63,18.05Z"/>
  <path class="c" d="M89.07,37.2c-2.03,5.05-3.42,8.63-5.37,13.71-5.66,14.74-11.58,29.37-17.41,44.04-.2,.49-.48,1.18-.78,1.61l14.95,39.67c.23-3.88,.65-7.76,1.44-11.63,2.43-11.93,5.05-23.81,7.76-35.68l-.59-51.72Z"/>
  <path class="c" d="M107.29,0c-.18,.42-.37,.85-.55,1.27l-4.53,10.57s-.03,.07-.05,.11l-5.21,12.66,4.63,30c1.61-6.91,3.23-13.81,4.84-20.72h0s0,0,3.4-14.57c3.35-14.38-2.37-19.19-2.52-19.32Z"/>
  <polygon class="c" points="96.94 76.65 104.3 97.48 111.4 95.77 98.39 75.63 96.94 76.65"/>
  <polygon class="c" points="105.26 58.15 125.91 49.99 125.91 56.98 125.91 62.14 105.26 62.14 105.26 58.15"/>
</svg>